<svg width="428" height="755" viewBox="0 0 428 755" fill="none" xmlns="http://www.w3.org/2000/svg">
<path d="M109.225 617.458L103.701 611.592C103.701 611.592 108.482 604.402 112.413 600.577C116.266 596.828 123.419 592.307 123.419 592.307C124.656 593.913 127.232 597.227 127.639 597.625C128.047 598.023 113.493 609.221 109.225 617.458Z" fill="black"/>
<path fill-rule="evenodd" clip-rule="evenodd" d="M113.588 596.753C113.707 596.444 114.054 596.289 114.363 596.408C115.04 596.668 116.104 597.151 117.123 597.766C118.121 598.368 119.168 599.151 119.712 600.036C120.663 601.583 121.649 603.699 122.023 604.563C122.155 604.867 122.015 605.221 121.711 605.352C121.407 605.484 121.053 605.344 120.922 605.04C120.556 604.196 119.597 602.14 118.69 600.665C118.305 600.039 117.474 599.38 116.503 598.793C115.552 598.219 114.554 597.766 113.933 597.528C113.624 597.409 113.469 597.062 113.588 596.753Z" fill="white"/>
<path fill-rule="evenodd" clip-rule="evenodd" d="M106.716 604.535C106.834 604.226 107.181 604.071 107.491 604.19C108.188 604.458 109.285 604.956 110.335 605.59C111.365 606.211 112.442 607.017 113.001 607.927C113.982 609.522 114.998 611.704 115.384 612.595C115.516 612.899 115.376 613.253 115.072 613.384C114.768 613.516 114.415 613.376 114.283 613.072C113.905 612.201 112.915 610.079 111.979 608.555C111.579 607.905 110.718 607.223 109.715 606.617C108.733 606.024 107.702 605.557 107.061 605.31C106.751 605.192 106.597 604.845 106.716 604.535Z" fill="white"/>
<circle cx="137.838" cy="587.051" r="17.4143" transform="rotate(10.6931 137.838 587.051)" fill="white"/>
<path d="M124.067 490.127C122.283 499.578 114.716 512.667 105.265 510.882C95.8144 509.098 92.352 497.35 89.8436 483.665C87.3351 469.979 95.8144 462.194 105.265 463.979C114.716 465.763 125.852 480.676 124.067 490.127Z" fill="url(#paint0_linear_11_283)"/>
<circle cx="81.3259" cy="654.696" r="14.7439" transform="rotate(10.6931 81.3259 654.696)" fill="white"/>
<path fill-rule="evenodd" clip-rule="evenodd" d="M92.731 655.995L90.1244 654.744L92.2885 650.236L94.8952 651.488C98.5466 653.241 100.146 657.577 98.5086 661.281L97.0628 664.552C96.5045 665.815 95.0282 666.386 93.7654 665.828C92.5026 665.27 91.9314 663.793 92.4897 662.531L93.9355 659.26C94.4814 658.025 93.9482 656.58 92.731 655.995Z" fill="white"/>
<path d="M84.3328 620.364C89.1746 612.803 98.7357 603.99 102.857 602.44C102.149 606.727 104.83 609.525 106.229 610.47C107.977 611.651 115.338 619.556 112.47 622.651C109.601 625.746 106.783 641.274 104.613 648.435C102.444 655.596 90.3767 658.829 80.8986 658.539C71.4204 658.248 71.5074 651.317 68.7803 645.642C66.0533 639.967 78.2804 629.815 84.3328 620.364Z" fill="url(#paint1_linear_11_283)"/>
<path fill-rule="evenodd" clip-rule="evenodd" d="M101.496 621.526C104.143 618.171 107.15 615.05 109.07 613.238C109.07 613.238 109.277 613.464 109.403 613.615C109.526 613.765 109.706 614.008 109.706 614.008C107.816 615.793 104.893 618.835 102.281 622.145C99.655 625.475 97.4029 629.005 96.7701 631.779C95.4512 637.558 92.5836 650.977 91.2005 657.548L90.0539 657.788C91.4365 651.22 94.474 637.346 95.7952 631.556C96.4823 628.545 98.8653 624.862 101.496 621.526Z" fill="white"/>
<path d="M180.579 528.098C179.871 523.194 174.878 518.692 173.001 517.51L188.786 509.808C191.871 509.363 194.505 515.889 195.579 523.328C196.653 530.768 197.133 535.134 196.118 536.86L179.405 539.273C179.746 536.822 181.286 533.002 180.579 528.098Z" fill="black"/>
<path d="M175.954 533.183C175.954 533.183 181.027 530.948 186.332 530.722C191.637 530.495 195.847 531.982 198.26 532.984" stroke="white" stroke-width="2" stroke-linecap="round"/>
<path d="M152.917 549.049C158.259 546.591 222.315 523.408 222.315 523.408C226.771 522.166 231.506 522.376 235.824 524.008C240.142 525.641 243.817 528.609 246.312 532.479L279.142 583.318C282.914 589.161 285.251 595.81 285.964 602.73C286.679 609.648 285.75 616.643 283.254 623.15C280.759 629.657 276.764 635.494 271.593 640.189C266.423 644.886 260.221 648.311 253.488 650.187L191.675 667.389C184.952 669.264 177.886 669.541 171.046 668.2C164.206 666.86 157.783 663.936 152.295 659.668C146.806 655.4 142.404 649.904 139.444 643.624C136.483 637.343 135.047 630.452 135.249 623.506L137.176 567.75C137.306 563.133 136.862 560.424 139.722 556.779C142.582 553.135 147.575 551.506 152.917 549.049Z" fill="url(#paint2_linear_11_283)"/>
<path d="M199.981 558.815L179.26 565.496C178.247 565.823 177.689 566.898 178.009 567.896L180.641 576.101C180.795 576.582 180.748 577.106 180.513 577.557C180.277 578.005 179.873 578.344 179.389 578.5L169.38 581.728C155.808 586.104 148.293 600.518 152.592 613.919L155.986 624.501C156.407 625.813 157.335 626.897 158.571 627.522L170.234 633.413C171.469 634.037 172.909 634.146 174.234 633.719L194.955 627.038C195.968 626.711 196.526 625.636 196.206 624.638L193.574 616.433C193.42 615.952 193.467 615.427 193.702 614.976C193.938 614.529 194.341 614.186 194.825 614.03L204.834 610.803C218.406 606.426 225.922 592.016 221.622 578.611L218.23 568.036C217.809 566.724 216.881 565.64 215.645 565.015L203.985 559.12C202.749 558.496 201.309 558.386 199.981 558.815ZM209.655 582.474C211.859 589.344 208.005 596.735 201.048 598.978L191.036 602.206C190.022 602.533 189.464 603.608 189.784 604.606L192.416 612.811C192.57 613.292 192.524 613.817 192.288 614.268L192.286 614.272C192.05 614.72 191.646 615.059 191.162 615.215L170.387 621.914C169.373 622.241 168.295 621.693 167.975 620.695L164.563 610.059C162.358 603.185 166.212 595.795 173.172 593.551L183.182 590.323C184.195 589.996 184.753 588.921 184.433 587.924L181.802 579.722C181.648 579.241 181.695 578.716 181.93 578.265L181.932 578.261C182.168 577.813 182.571 577.471 183.055 577.315L203.83 570.616C204.844 570.289 205.922 570.837 206.242 571.834L209.655 582.474Z" fill="url(#paint3_linear_11_283)"/>
<circle cx="247.751" cy="541.398" r="17.4143" transform="rotate(-28.595 247.751 541.398)" fill="white"/>
<path d="M250.066 543.111C252.642 539.234 256.461 539.659 258.56 540.711C267.867 546.743 278.544 554.393 286.737 560.551C284.38 565.245 277.531 575.512 275.452 571.698C272.853 566.931 253.042 552.617 251.658 551.61C250.275 550.602 247.49 546.989 250.066 543.111Z" fill="black"/>
<path d="M284.465 553.31C292.715 545.463 300.741 546.33 301.923 546.51C302.027 546.525 302.112 546.54 302.215 546.556C303.985 546.839 321.972 550.15 342.862 570.654C359.23 586.72 365.079 599.847 366.485 607.759C367.047 610.92 363.85 612.667 360.872 611.468C350.247 607.189 333.165 602.15 320.552 604.543C306.559 607.197 296.965 625.892 293.074 637.167C292.469 638.918 290.987 640.305 289.163 639.982C286.861 639.575 284.151 638.197 283.979 634.245C282.996 611.561 280.457 593.18 274.372 585.102C268.287 577.025 273.296 563.934 284.465 553.31Z" fill="url(#paint4_linear_11_283)"/>
<path fill-rule="evenodd" clip-rule="evenodd" d="M279.575 625.385C276.207 626.518 274.395 630.167 275.528 633.535C276.386 636.087 277.096 641.208 277.514 645.766C278.035 651.441 282.927 655.969 288.88 655.641L301.905 654.923C305.453 654.727 308.171 651.692 307.975 648.144C307.78 644.596 304.745 641.878 301.197 642.074L290.142 642.683C289.696 638.426 288.938 633.04 287.725 629.432C286.592 626.064 282.943 624.252 279.575 625.385Z" fill="#E5E5E5"/>
<ellipse cx="334.604" cy="622.953" rx="41.2911" ry="34.5996" transform="rotate(5.64573 334.604 622.953)" fill="url(#paint5_linear_11_283)"/>
<path fill-rule="evenodd" clip-rule="evenodd" d="M383.581 605.546C388.061 606.435 390.973 610.787 390.084 615.267C389.411 618.662 389.351 625.306 389.57 631.185C389.843 638.504 384.355 645.084 376.713 645.648C369.071 646.212 358.713 651.756 358.713 651.756C345.546 656.402 346.393 649.839 346.057 645.284C345.721 640.729 356.742 632.016 361.297 631.68L372.965 629.34C372.831 623.84 372.909 616.849 373.86 612.05C374.748 607.57 379.1 604.658 383.581 605.546Z" fill="white"/>
<path fill-rule="evenodd" clip-rule="evenodd" d="M332.715 654.221C328.195 653.075 320.925 645.902 316.734 647.717L310.174 649.67C310.122 649.453 310.069 649.234 310.016 649.012C308.383 642.247 306.234 633.341 303.543 627.377C301.664 623.214 296.767 621.362 292.603 623.24C288.44 625.118 286.588 630.016 288.466 634.179C290.446 638.568 292.076 645.274 293.698 651.947C294.143 653.778 294.587 655.606 295.038 657.383C297.165 665.769 306.13 669.444 313.421 666.287L330.831 658.75C335.023 656.935 334.53 658.413 332.715 654.221Z" fill="#F5F5F5"/>
<path fill-rule="evenodd" clip-rule="evenodd" d="M318.626 615.514C323.118 614.69 327.428 617.664 328.252 622.157C328.719 624.705 329.201 628 329.733 631.641C330.505 636.925 331.2 640.984 332.295 646.499L338.005 643.573C341.429 640.55 346.655 640.875 349.678 644.298C352.701 647.722 355.275 653.18 351.167 655.227C347.059 657.274 339.079 664.69 339.079 664.69C335.709 667.665 331.185 668.78 326.965 667.705C322.624 666.598 319.006 663.244 317.779 658.454C315.825 650.819 314.219 639.926 313.099 632.332C312.643 629.241 312.268 626.696 311.983 625.14C311.159 620.648 314.133 616.338 318.626 615.514Z" fill="white"/>
<path fill-rule="evenodd" clip-rule="evenodd" d="M307.095 555.049C301.965 551.928 296.115 548.954 293.211 547.697C293.211 547.697 294.037 547.4 294.576 547.237C295.121 547.071 295.984 546.857 295.984 546.857C298.978 548.153 303.021 549.989 308.241 553.165C313.449 556.333 318.909 560.238 322.684 564.395C324.001 565.845 325.445 567.397 326.939 569.004C329.568 571.83 332.354 574.824 334.881 577.729C338.825 582.264 342.317 586.733 343.684 590.284L340.951 589.768C339.744 586.632 337.19 583.744 333.217 579.177C330.709 576.293 327.978 573.358 325.37 570.555C323.867 568.94 322.406 567.369 321.051 565.878C317.488 561.953 312.238 558.178 307.095 555.049Z" fill="white"/>
<path d="M257.95 559.589C257.95 559.589 258.137 553.512 260.771 550.007C263.404 546.503 267.018 545.518 269.503 545.247" stroke="white" stroke-width="2" stroke-linecap="round"/>
<path d="M267.639 566.704C267.639 566.704 267.827 560.627 270.46 557.122C273.094 553.618 276.708 552.633 279.193 552.362" stroke="white" stroke-width="2" stroke-linecap="round"/>
<g style="mix-blend-mode:multiply">
<path d="M350.795 604.949C351.194 607.038 340.313 602.97 329.961 604.949C319.609 606.928 313.706 614.205 313.307 612.116C312.908 610.027 319.609 603.009 329.961 601.03C340.313 599.051 350.396 602.86 350.795 604.949Z" fill="#4D4D4D" fill-opacity="0.5"/>
</g>
<g filter="url(#filter0_f_11_283)">
<ellipse cx="31.1004" cy="31.6039" rx="31.1004" ry="31.6039" transform="matrix(0.998267 -0.0588449 0.0611383 0.998129 288.593 551.368)" fill="#ED5F00" fill-opacity="0.6"/>
</g>
<path d="M348.151 580.126C348.945 593.1 337.344 604.338 324.575 605.091C311.807 605.844 300.812 595.937 300.018 582.964C299.223 569.991 307.39 560.5 318.785 557.123C330.179 553.746 347.356 567.153 348.151 580.126Z" fill="#ED5F00"/>
<ellipse cx="23.1592" cy="23.5342" rx="23.1592" ry="23.5342" transform="matrix(0.998267 -0.0588449 0.0611383 0.998129 298.361 557.963)" fill="url(#paint6_linear_11_283)"/>
<ellipse cx="17.0847" cy="17.3613" rx="17.0847" ry="17.3613" transform="matrix(0.998267 -0.0588449 0.0611383 0.998129 304.802 563.767)" fill="#ED5F00"/>
<ellipse cx="16.5152" cy="16.7826" rx="16.5152" ry="16.7826" transform="matrix(0.998267 -0.0588449 0.0611383 0.998129 306.082 564.692)" fill="black"/>
<path d="M319.754 571.635C319.624 571.13 319.783 570.592 320.168 570.239L320.259 570.156C320.379 570.045 320.526 569.968 320.685 569.931C321.178 569.818 321.671 570.114 321.803 570.604L326.979 589.89C327.129 590.446 326.87 591.032 326.359 591.297C325.663 591.658 324.815 591.279 324.62 590.52L319.754 571.635Z" fill="#ED5F00"/>
<path fill-rule="evenodd" clip-rule="evenodd" d="M321.067 572.781C324.538 571.688 327.404 572.652 328.493 573.673C328.879 574.035 329.003 575.387 328.648 575.778C328.294 576.168 327.693 576.191 327.307 575.829C326.535 575.105 324.254 573.799 321.636 574.623C319.833 575.191 318.71 575.95 318.125 576.744C317.574 577.491 317.434 578.349 317.77 579.37C317.962 579.957 318.156 580.305 318.344 580.515C318.51 580.701 318.702 580.815 318.993 580.871C319.314 580.933 319.769 580.927 320.437 580.81C321.099 580.695 321.909 580.484 322.92 580.183C325.053 579.548 327.007 579.433 328.515 579.981C329.284 580.261 329.641 579.714 330.123 580.366C330.605 581.018 331.423 582.84 331.477 583.723C331.593 585.615 330.973 587.071 329.885 588.184C328.855 589.236 327.308 589.814 325.447 590.275C323.434 590.774 321.692 590.615 320.366 590.199C319.706 589.991 319.143 589.718 318.698 589.424C318.274 589.144 317.639 587.808 317.416 587.42C317.151 586.96 317.946 586.799 318.375 586.396C318.804 585.993 319.037 586.981 319.302 587.442C319.305 587.446 319.332 587.487 319.404 587.555C319.479 587.627 319.586 587.714 319.729 587.808C320.015 587.997 320.416 588.198 320.921 588.356C321.926 588.672 323.319 588.815 324.99 588.401C326.813 587.95 327.903 587.468 328.535 586.821C329.108 586.236 329.428 585.382 329.331 583.808C329.297 583.243 329.138 582.829 328.912 582.524C328.687 582.219 328.353 581.968 327.882 581.797C326.911 581.443 325.41 581.454 323.461 582.034C322.432 582.34 321.538 582.577 320.765 582.711C319.998 582.845 319.287 582.89 318.645 582.765C317.972 582.635 317.401 582.324 316.94 581.808C316.501 581.316 316.202 580.683 315.969 579.973C315.452 578.4 315.652 576.874 316.604 575.583C318.261 573.733 319.065 573.411 321.067 572.781Z" fill="#ED5F00"/>
<rect width="1.73889" height="21.9151" rx="0.869447" transform="matrix(0.96705 -0.252852 0.249255 0.968879 319.346 569.886)" fill="white"/>
<path fill-rule="evenodd" clip-rule="evenodd" d="M320.814 571.815C324.285 570.722 327.249 572.428 328.339 573.449C328.725 573.811 328.75 574.421 328.395 574.812C328.04 575.203 327.44 575.226 327.054 574.864C326.281 574.139 324 572.833 321.383 573.657C319.58 574.225 318.457 574.984 317.872 575.778C317.321 576.525 317.181 577.384 317.516 578.404C317.709 578.991 317.903 579.339 318.091 579.549C318.257 579.736 318.449 579.849 318.74 579.905C319.061 579.968 319.516 579.961 320.184 579.845C320.846 579.729 321.656 579.518 322.667 579.217C324.8 578.582 326.754 578.467 328.262 579.015C329.031 579.295 329.693 579.752 330.175 580.404C330.658 581.055 330.919 581.847 330.973 582.73C331.089 584.623 330.72 586.106 329.631 587.218C328.602 588.27 327.055 588.848 325.194 589.309C323.181 589.808 321.439 589.649 320.113 589.233C319.453 589.025 318.89 588.752 318.445 588.458C318.021 588.178 317.634 587.832 317.411 587.445C317.146 586.984 317.297 586.394 317.75 586.127C318.202 585.859 318.783 586.016 319.049 586.476C319.049 586.476 319.049 586.476 319.049 586.477C319.052 586.481 319.079 586.521 319.151 586.589C319.225 586.661 319.333 586.748 319.476 586.843C319.762 587.032 320.162 587.232 320.667 587.391C321.673 587.706 323.065 587.85 324.737 587.436C326.56 586.984 327.649 586.502 328.282 585.856C328.855 585.27 329.175 584.416 329.078 582.842C329.044 582.277 328.885 581.863 328.659 581.558C328.433 581.253 328.1 581.002 327.629 580.831C326.658 580.478 325.157 580.488 323.208 581.068C322.179 581.374 321.284 581.611 320.512 581.746C319.745 581.879 319.034 581.924 318.391 581.8C317.718 581.669 317.148 581.358 316.687 580.842C316.248 580.35 315.949 579.718 315.716 579.008C315.199 577.435 315.398 575.908 316.351 574.617C317.268 573.374 318.812 572.446 320.814 571.815Z" fill="white"/>
<g filter="url(#filter1_f_11_283)">
<path d="M378.067 563.069C374.842 577.138 358.957 585.469 345.12 582.263C331.283 579.058 322.68 565.054 325.905 550.986C329.13 536.917 340.808 529.371 354.006 529.35C367.203 529.329 381.292 549.001 378.067 563.069Z" fill="#ED5F00"/>
<ellipse cx="25.7178" cy="26.1342" rx="25.7178" ry="26.1342" transform="matrix(0.974201 0.225682 -0.223443 0.974717 334.688 523.995)" fill="url(#paint7_linear_11_283)"/>
<ellipse cx="18.9721" cy="19.2793" rx="18.9721" ry="19.2793" transform="matrix(0.974201 0.225682 -0.223443 0.974717 339.728 532.199)" fill="#ED5F00"/>
<ellipse cx="18.3397" cy="18.6367" rx="18.3397" ry="18.6367" transform="matrix(0.974201 0.225682 -0.223443 0.974717 339.44 533.451)" fill="black"/>
<path d="M352.448 544.965C352.467 544.386 352.806 543.863 353.327 543.608L353.45 543.548C353.613 543.468 353.793 543.432 353.974 543.442C354.535 543.476 354.967 543.947 354.954 544.509L354.415 566.678C354.4 567.317 353.94 567.86 353.313 567.982C352.458 568.148 351.674 567.478 351.704 566.609L352.448 544.965Z" fill="#ED5F00"/>
<path fill-rule="evenodd" clip-rule="evenodd" d="M353.449 546.489C357.49 546.414 360.888 549.148 361.728 550.578C362.025 551.084 361.085 551.756 360.584 552.061C360.084 552.365 359.437 552.202 359.139 551.695C358.544 550.681 356.524 548.574 353.478 548.63C351.379 548.669 349.944 549.125 349.071 549.787C348.25 550.409 347.832 551.281 347.869 552.473C347.89 553.159 347.987 553.59 348.121 553.873C348.24 554.124 348.409 554.304 348.701 554.456C349.024 554.623 349.51 554.759 350.258 554.844C350.999 554.929 351.929 554.958 353.1 554.955C355.571 554.948 357.689 555.439 359.124 556.496C359.855 557.035 360.417 557.73 360.726 558.575C361.035 559.421 361.618 560.475 361.398 561.432C360.928 563.485 359.517 564.82 358.008 565.664C356.581 566.461 354.752 566.592 352.625 566.499C350.324 566.398 348.518 565.682 347.237 564.823C346.599 564.394 346.084 563.926 345.703 563.473C345.339 563.042 345.413 562.632 345.297 562.149C345.159 561.575 345.725 560.441 346.309 560.147C346.892 559.852 346.83 560.978 346.968 561.552C346.97 561.558 346.986 561.609 347.041 561.705C347.098 561.804 347.185 561.931 347.308 562.076C347.553 562.367 347.917 562.707 348.405 563.034C349.377 563.686 350.815 564.276 352.726 564.359C354.809 564.45 356.121 564.279 356.998 563.789C357.792 563.345 358.4 562.535 358.792 560.829C358.932 560.216 358.893 559.725 358.748 559.329C358.604 558.933 358.327 558.562 357.879 558.231C356.956 557.55 355.353 557.09 353.096 557.097C351.903 557.1 350.876 557.072 350.011 556.972C349.152 556.874 348.381 556.699 347.735 556.364C347.059 556.014 346.55 555.504 346.221 554.809C345.907 554.147 345.787 553.38 345.761 552.55C345.705 550.713 346.396 549.149 347.815 548.073C350.162 546.622 351.119 546.532 353.449 546.489Z" fill="#ED5F00"/>
<rect width="1.931" height="24.3363" rx="0.965501" transform="matrix(0.999086 0.0307611 -0.0347283 0.999825 353.299 543.281)" fill="white"/>
<path fill-rule="evenodd" clip-rule="evenodd" d="M354.258 545.797C358.298 545.721 360.92 548.469 361.76 549.899C362.058 550.406 361.893 551.063 361.393 551.368C360.892 551.673 360.245 551.509 359.947 551.002C359.352 549.988 357.332 547.881 354.286 547.938C352.187 547.977 350.752 548.433 349.879 549.095C349.058 549.717 348.64 550.588 348.677 551.781C348.698 552.466 348.795 552.897 348.93 553.18C349.048 553.431 349.217 553.612 349.509 553.763C349.832 553.93 350.318 554.066 351.066 554.152C351.808 554.237 352.737 554.266 353.908 554.263C356.379 554.256 358.497 554.746 359.932 555.804C360.663 556.343 361.225 557.038 361.534 557.883C361.843 558.729 361.873 559.654 361.653 560.612C361.183 562.664 360.325 564.128 358.816 564.971C357.389 565.769 355.56 565.899 353.433 565.806C351.132 565.706 349.326 564.99 348.045 564.13C347.407 563.702 346.892 563.234 346.511 562.781C346.147 562.35 345.843 561.86 345.727 561.377C345.589 560.804 345.936 560.223 346.502 560.08C347.067 559.937 347.638 560.286 347.776 560.86C347.776 560.859 347.776 560.859 347.776 560.86C347.778 560.866 347.794 560.917 347.849 561.012C347.906 561.112 347.993 561.239 348.116 561.384C348.361 561.675 348.725 562.014 349.213 562.342C350.185 562.994 351.623 563.583 353.534 563.667C355.617 563.758 356.929 563.586 357.806 563.096C358.601 562.652 359.209 561.843 359.6 560.136C359.74 559.524 359.701 559.033 359.557 558.637C359.412 558.241 359.135 557.869 358.687 557.539C357.764 556.858 356.161 556.398 353.904 556.404C352.711 556.407 351.684 556.379 350.819 556.28C349.96 556.182 349.189 556.006 348.544 555.672C347.867 555.322 347.358 554.811 347.029 554.117C346.715 553.455 346.595 552.687 346.569 551.858C346.513 550.02 347.204 548.457 348.624 547.381C349.991 546.345 351.927 545.84 354.258 545.797Z" fill="white"/>
</g>
<g filter="url(#filter2_f_11_283)">
<path d="M392.943 496.104C399.931 514.559 388.164 536.076 369.987 542.911C351.81 549.747 331.409 540.327 324.421 521.872C317.432 503.416 325.006 485.98 340.01 475.957C355.014 465.934 385.954 477.649 392.943 496.104Z" fill="#ED5F00"/>
<ellipse cx="35.1624" cy="35.7317" rx="35.1624" ry="35.7317" transform="matrix(0.936007 -0.351982 0.354132 0.935195 313.967 484.499)" fill="url(#paint8_linear_11_283)"/>
<ellipse cx="25.9395" cy="26.3595" rx="25.9395" ry="26.3595" transform="matrix(0.936007 -0.351982 0.354132 0.935195 325.918 490.017)" fill="#ED5F00"/>
<ellipse cx="25.0749" cy="25.4808" rx="25.0749" ry="25.4808" transform="matrix(0.936007 -0.351982 0.354132 0.935195 326.541 491.661)" fill="black"/>
<path d="M350.068 494.91C349.652 494.235 349.641 493.384 350.041 492.699L350.135 492.537C350.26 492.323 350.438 492.145 350.652 492.02C351.315 491.633 352.165 491.842 352.575 492.492L368.758 518.13C369.224 518.87 369.113 519.836 368.491 520.451C367.645 521.286 366.245 521.118 365.62 520.106L350.068 494.91Z" fill="#ED5F00"/>
<path fill-rule="evenodd" clip-rule="evenodd" d="M352.363 495.885C356.905 492.738 362.844 493.275 364.882 494.266C365.605 494.618 365.043 496.094 364.705 496.82C364.366 497.546 363.506 497.85 362.783 497.499C361.337 496.796 357.442 495.928 354.017 498.3C351.658 499.935 350.371 501.541 349.879 502.956C349.416 504.286 349.6 505.594 350.545 506.924C351.089 507.688 351.526 508.105 351.893 508.325C352.219 508.521 352.547 508.599 352.994 508.55C353.488 508.495 354.145 508.282 355.061 507.812C355.969 507.347 357.049 506.676 358.38 505.785C361.187 503.905 363.969 502.859 366.403 502.975C367.643 503.035 368.809 503.4 369.801 504.128C370.794 504.856 372.256 505.614 372.732 506.87C373.751 509.562 373.157 512.151 372.078 514.255C371.059 516.243 369.076 517.777 366.584 519.283C363.89 520.912 361.292 521.466 359.182 521.458C358.132 521.454 357.192 521.311 356.414 521.085C355.674 520.869 355.447 520.346 354.949 519.885C354.357 519.336 354.142 517.616 354.583 516.839C355.025 516.062 355.807 517.391 356.398 517.939C356.405 517.945 356.462 517.991 356.597 518.058C356.738 518.128 356.933 518.206 357.183 518.279C357.682 518.424 358.353 518.534 359.157 518.537C360.757 518.543 362.841 518.124 365.078 516.772C367.519 515.297 368.882 514.108 369.509 512.886C370.076 511.778 370.155 510.397 369.307 508.158C369.003 507.354 368.587 506.825 368.122 506.484C367.658 506.143 367.061 505.93 366.301 505.893C364.734 505.818 362.562 506.508 359.997 508.226C358.642 509.133 357.452 509.879 356.392 510.421C355.34 510.96 354.329 511.345 353.342 511.454C352.307 511.567 351.34 511.372 350.439 510.831C349.581 510.316 348.862 509.533 348.205 508.609C346.749 506.56 346.351 504.256 347.151 501.957C348.722 498.528 349.743 497.7 352.363 495.885Z" fill="#ED5F00"/>
<rect width="2.64015" height="33.2735" rx="1.32007" transform="matrix(0.848708 -0.528029 0.525136 0.851521 349.761 492.348)" fill="white"/>
<path fill-rule="evenodd" clip-rule="evenodd" d="M352.758 494.485C357.3 491.338 362.366 492.478 364.405 493.469C365.127 493.821 365.439 494.694 365.1 495.42C364.761 496.146 363.901 496.45 363.178 496.098C361.732 495.396 357.837 494.528 354.412 496.9C352.053 498.535 350.766 500.141 350.274 501.555C349.811 502.886 349.995 504.194 350.94 505.523C351.484 506.288 351.921 506.705 352.288 506.925C352.614 507.12 352.943 507.199 353.389 507.149C353.883 507.095 354.54 506.881 355.456 506.412C356.365 505.947 357.444 505.276 358.775 504.385C361.582 502.505 364.364 501.458 366.798 501.575C368.038 501.635 369.204 502 370.197 502.728C371.189 503.456 371.925 504.487 372.4 505.743C373.42 508.435 373.552 510.751 372.473 512.854C371.454 514.843 369.471 516.377 366.98 517.883C364.285 519.512 361.687 520.065 359.577 520.058C358.527 520.054 357.587 519.911 356.809 519.684C356.069 519.469 355.352 519.142 354.854 518.68C354.262 518.132 354.217 517.208 354.752 516.617C355.288 516.025 356.202 515.991 356.794 516.539C356.793 516.539 356.793 516.539 356.794 516.539C356.801 516.545 356.857 516.59 356.992 516.657C357.133 516.728 357.328 516.806 357.578 516.878C358.077 517.024 358.749 517.134 359.552 517.137C361.152 517.143 363.236 516.724 365.473 515.372C367.914 513.896 369.277 512.707 369.904 511.485C370.472 510.378 370.55 508.996 369.703 506.757C369.398 505.954 368.982 505.425 368.517 505.084C368.053 504.743 367.456 504.529 366.696 504.493C365.129 504.418 362.957 505.108 360.392 506.826C359.037 507.733 357.847 508.479 356.787 509.021C355.735 509.56 354.724 509.945 353.737 510.053C352.702 510.167 351.735 509.972 350.835 509.431C349.976 508.915 349.258 508.133 348.6 507.208C347.144 505.16 346.746 502.856 347.546 500.556C348.317 498.341 350.138 496.3 352.758 494.485Z" fill="white"/>
</g>
<g filter="url(#filter3_f_11_283)">
<path d="M375.308 415.552C370.237 442.698 340.518 459.859 313.816 454.808C287.114 449.757 269.578 423.656 274.649 396.511C279.719 369.365 301.457 354.03 326.685 352.963C351.912 351.895 380.378 388.406 375.308 415.552Z" fill="#ED5F00"/>
<ellipse cx="49.2054" cy="50.0021" rx="49.2054" ry="50.0021" transform="matrix(0.982574 0.18587 -0.183612 0.982999 289.338 344.229)" fill="url(#paint9_linear_11_283)"/>
<ellipse cx="36.2991" cy="36.8868" rx="36.2991" ry="36.8868" transform="matrix(0.982574 0.18587 -0.183612 0.982999 299.611 359.52)" fill="#ED5F00"/>
<ellipse cx="35.0891" cy="35.6572" rx="35.0891" ry="35.6572" transform="matrix(0.982574 0.18587 -0.183612 0.982999 299.16 361.937)" fill="black"/>
<path d="M324.922 382.936C324.915 381.826 325.521 380.802 326.497 380.273L326.727 380.148C327.032 379.983 327.375 379.899 327.721 379.906C328.796 379.927 329.66 380.793 329.677 381.869L330.373 424.29C330.393 425.514 329.557 426.588 328.367 426.87C326.746 427.253 325.196 426.035 325.185 424.37L324.922 382.936Z" fill="#ED5F00"/>
<path fill-rule="evenodd" clip-rule="evenodd" d="M326.956 385.771C334.675 385.313 341.383 390.275 343.1 392.943C343.708 393.889 341.963 395.245 341.029 395.867C340.096 396.488 338.847 396.226 338.238 395.28C337.021 393.388 332.996 389.517 327.176 389.862C323.167 390.1 320.46 391.084 318.843 392.417C317.322 393.67 316.59 395.368 316.753 397.645C316.847 398.954 317.067 399.771 317.345 400.301C317.592 400.771 317.928 401.104 318.498 401.37C319.128 401.665 320.068 401.887 321.505 401.992C322.929 402.097 324.708 402.08 326.947 401.983C331.67 401.777 335.757 402.55 338.582 404.46C340.022 405.434 341.15 406.718 341.806 408.31C342.463 409.903 343.66 411.872 343.315 413.72C342.575 417.68 339.981 420.343 337.162 422.073C334.496 423.708 331.01 424.1 326.936 424.088C322.53 424.075 319.022 422.846 316.506 421.303C315.252 420.534 314.233 419.679 313.468 418.843C312.74 418.047 312.849 417.256 312.589 416.343C312.281 415.256 313.275 413.044 314.368 412.436C315.461 411.827 315.429 413.985 315.737 415.071C315.741 415.082 315.776 415.179 315.888 415.357C316.006 415.544 316.182 415.779 316.428 416.047C316.919 416.585 317.642 417.205 318.6 417.793C320.508 418.963 323.305 419.979 326.963 419.99C330.953 420.001 333.448 419.572 335.086 418.567C336.57 417.656 337.669 416.062 338.285 412.768C338.505 411.587 338.392 410.651 338.085 409.906C337.778 409.16 337.22 408.471 336.338 407.874C334.519 406.644 331.421 405.889 327.105 406.077C324.825 406.176 322.86 406.202 321.198 406.08C319.549 405.958 318.06 405.683 316.801 405.094C315.481 404.478 314.467 403.541 313.784 402.24C313.132 400.998 312.843 399.54 312.73 397.957C312.479 394.448 313.679 391.405 316.309 389.238C320.681 386.282 322.504 386.035 326.956 385.771Z" fill="#ED5F00"/>
<rect width="3.69455" height="46.5621" rx="1.84728" transform="matrix(0.99951 -0.00990159 0.00596784 1.00041 326.418 379.65)" fill="white"/>
<path fill-rule="evenodd" clip-rule="evenodd" d="M328.446 384.385C336.165 383.926 341.392 388.975 343.108 391.643C343.716 392.588 343.453 393.859 342.52 394.48C341.587 395.102 340.337 394.839 339.729 393.893C338.512 392.001 334.486 388.13 328.667 388.476C324.658 388.713 321.951 389.697 320.333 391.03C318.812 392.284 318.081 393.982 318.244 396.259C318.337 397.568 318.557 398.384 318.835 398.915C319.082 399.385 319.418 399.718 319.988 399.984C320.618 400.278 321.559 400.5 322.995 400.606C324.42 400.711 326.198 400.694 328.438 400.596C333.161 400.391 337.248 401.164 340.072 403.074C341.512 404.048 342.64 405.332 343.297 406.924C343.954 408.517 344.083 410.284 343.738 412.131C342.998 416.091 341.472 418.956 338.652 420.686C335.987 422.322 332.501 422.713 328.427 422.701C324.021 422.688 320.512 421.46 317.996 419.916C316.743 419.147 315.723 418.293 314.959 417.456C314.23 416.66 313.611 415.748 313.351 414.834C313.043 413.748 313.661 412.61 314.731 412.293C315.801 411.975 316.919 412.599 317.228 413.685C317.227 413.684 317.227 413.685 317.228 413.686C317.232 413.697 317.267 413.793 317.379 413.971C317.496 414.157 317.673 414.392 317.918 414.661C318.41 415.198 319.132 415.818 320.091 416.406C321.999 417.577 324.795 418.593 328.453 418.603C332.444 418.615 334.938 418.185 336.576 417.18C338.061 416.27 339.16 414.675 339.775 411.382C339.996 410.2 339.883 409.265 339.576 408.519C339.268 407.773 338.71 407.084 337.829 406.488C336.01 405.258 332.911 404.503 328.595 404.691C326.316 404.79 324.351 404.815 322.689 404.693C321.039 404.572 319.551 404.297 318.291 403.708C316.972 403.091 315.957 402.155 315.274 400.853C314.623 399.612 314.334 398.154 314.22 396.57C313.97 393.062 315.17 390.018 317.799 387.852C320.332 385.764 323.994 384.649 328.446 384.385Z" fill="white"/>
</g>
<path d="M105.905 524.613C102.239 515.612 94.3247 472.332 90.8258 451.817C90.3329 445.739 108.663 422.842 118.502 415.927C128.34 409.012 167.361 400.785 190.307 397.089C213.253 393.393 239.258 394.18 248.588 411.163C257.918 428.147 261.19 472.843 257.527 480.48C253.865 488.118 240.384 511.386 230.427 514.514C220.47 517.642 136.719 534.96 128.162 535.042C119.604 535.125 110.488 535.864 105.905 524.613Z" fill="url(#paint10_linear_11_283)"/>
<path d="M118.276 518.064C116.595 514.178 104.845 462.828 108.056 459.989C111.796 461.193 135.827 456.786 154.417 453.541C173.008 450.296 196.022 444.993 205.205 442.747C206.104 447.003 208.557 457.959 211.179 467.737C214.094 478.61 219.339 496.482 219.176 497.732C219.014 498.982 218.243 499.988 218.009 500.471C214.849 502.344 189.563 509.609 169.73 512.927C149.898 516.245 120.377 522.921 118.276 518.064Z" fill="#F37908"/>
<path d="M119.554 515.217C117.874 511.331 111.19 476.718 108.058 459.897C116.192 458.182 137.106 453.94 155.696 450.695C174.286 447.45 197.301 442.147 206.484 439.901C207.383 444.157 209.836 455.113 212.458 464.89C215.735 477.112 219.486 492.168 219.308 497.799C216.149 499.672 190.842 506.762 171.009 510.081C151.176 513.399 121.656 520.074 119.554 515.217Z" fill="black"/>
<path d="M179.334 408.225C177.767 410.905 173.969 412.421 170.449 412.31C166.93 412.198 162.927 411.199 161.84 407.672C161.985 403.089 166.019 399.497 170.85 399.65C175.681 399.803 179.479 403.642 179.334 408.225Z" fill="white"/>
<path d="M176.89 379.838C173.719 385.664 171.495 396.954 170.78 401.871L172.846 403.049C173.752 398.016 175.357 388.869 177.926 383.171C180.495 377.474 188.239 370.382 192.152 368.654C193.847 369.793 197.813 371.054 202.014 370.446C206.214 369.838 213.453 356.979 214.749 351.402C206.764 352.075 190.496 354.525 189.311 358.932C188.126 363.34 189.52 366.1 190.365 366.929C187.194 368.805 180.061 374.012 176.89 379.838Z" fill="white"/>
<path d="M184.726 431.41L183.958 431.617L183.18 431.813L181.646 432.205L178.567 432.956L177.045 433.305C177.045 433.305 164.736 436.183 155.8 437.858C146.864 439.533 135.373 441.833 134.847 441.957C134.32 442.082 133.824 442.211 133.313 442.338L131.778 442.731L130.255 443.112L128.709 443.537L127.185 443.93L125.651 444.333L122.593 445.129L121.059 445.499L120.291 445.706L119.514 445.88C119.438 445.899 119.359 445.903 119.282 445.891C119.204 445.879 119.13 445.852 119.064 445.81C118.997 445.769 118.939 445.715 118.894 445.651C118.849 445.587 118.817 445.515 118.8 445.439C118.775 445.309 118.793 445.174 118.85 445.055C118.907 444.936 119.002 444.838 119.119 444.776C120.093 444.322 121.087 443.924 122.07 443.515L123.577 442.945L125.083 442.409C126.097 442.066 127.122 441.757 128.148 441.404C129.174 441.05 130.217 440.83 131.251 440.565C132.285 440.3 133.281 440.072 134.505 439.803C151.551 436.05 169.582 431.823 178.216 431.138L179.801 430.901L181.395 430.709C182.501 430.612 183.519 430.501 184.59 430.458C184.658 430.454 184.726 430.464 184.79 430.486C184.853 430.509 184.912 430.544 184.962 430.59C185.012 430.636 185.052 430.691 185.08 430.753C185.109 430.814 185.124 430.881 185.126 430.949C185.128 431.064 185.092 431.178 185.024 431.271C184.955 431.365 184.857 431.433 184.746 431.465L184.726 431.41Z" fill="white"/>
<path d="M230.387 458.047C228.531 447.28 223.599 433.921 221.365 428.588C224.135 433.251 230.312 445.208 232.863 455.723C235.413 466.237 235.12 483.824 234.655 491.303C234.006 484.704 232.243 468.814 230.387 458.047Z" fill="white"/>
<path d="M141.751 480.5C139.716 479.253 137.3 478.776 134.943 479.154C132.652 479.445 130.515 480.464 128.849 482.061L125.96 478.697C127.219 477.726 128.635 476.977 130.147 476.483C131.615 476.008 133.146 475.756 134.688 475.735C136.213 475.691 137.734 475.893 139.194 476.334C140.667 476.783 142.034 477.525 143.213 478.517L141.751 480.5Z" fill="white"/>
<path d="M176.761 471.536C177.537 470.203 178.576 469.041 179.813 468.12C181.025 467.185 182.381 466.455 183.828 465.958C185.292 465.455 186.824 465.177 188.372 465.133C189.975 465.088 191.574 465.319 193.097 465.817L191.514 469.964C189.401 469.025 187.041 468.791 184.784 469.297C182.441 469.741 180.334 471.005 178.842 472.863L176.761 471.536Z" fill="white"/>
<path d="M142.058 489.717C142.058 489.717 148.144 493.64 162.898 490.376C177.652 487.112 182.314 481.823 182.314 481.823C180.541 489.968 177.144 496.325 164.68 498.763C152.216 501.202 145.424 496.395 142.058 489.717Z" fill="white"/>
<g filter="url(#filter4_f_11_283)">
<path d="M285.094 249.539C304.651 284.941 287.051 332.02 252.169 351.185C217.287 370.351 173.156 357.189 153.599 321.787C134.042 286.386 144.324 248.806 171.84 224.099C199.356 199.393 265.537 214.138 285.094 249.539Z" fill="#ED5F00"/>
<ellipse cx="72.0642" cy="73.2309" rx="72.0642" ry="73.2309" transform="matrix(0.876425 -0.481539 0.483551 0.875316 121.497 249.019)" fill="url(#paint11_linear_11_283)"/>
<ellipse cx="53.1621" cy="54.0228" rx="53.1621" ry="54.0228" transform="matrix(0.876425 -0.481539 0.483551 0.875316 147.352 256.73)" fill="#ED5F00"/>
<ellipse cx="51.39" cy="52.222" rx="51.39" ry="52.222" transform="matrix(0.876425 -0.481539 0.483551 0.875316 149.093 259.882)" fill="black"/>
<path d="M197.768 259.615C196.727 258.368 196.458 256.645 197.068 255.138L197.212 254.783C197.403 254.312 197.712 253.898 198.11 253.583C199.344 252.605 201.127 252.78 202.15 253.98L242.452 301.273C243.614 302.637 243.671 304.63 242.588 306.057C241.114 308 238.226 308.067 236.663 306.196L197.768 259.615Z" fill="#ED5F00"/>
<path fill-rule="evenodd" clip-rule="evenodd" d="M202.708 260.924C211.005 253.217 223.209 252.575 227.634 253.991C229.202 254.493 228.493 257.652 228.018 259.224C227.542 260.796 225.885 261.663 224.317 261.161C221.179 260.156 213.024 259.531 206.768 265.342C202.459 269.346 200.317 272.979 199.73 275.992C199.179 278.826 199.934 281.426 202.239 283.848C203.564 285.24 204.573 285.958 205.382 286.298C206.099 286.6 206.789 286.662 207.681 286.432C208.667 286.178 209.936 285.553 211.658 284.334C213.366 283.126 215.36 281.45 217.8 279.254C222.947 274.622 228.285 271.688 233.257 271.216C235.791 270.975 238.262 271.375 240.488 272.563C242.713 273.751 245.9 274.861 247.231 277.271C250.084 282.435 249.633 287.861 248.059 292.442C246.57 296.774 242.995 300.464 238.379 304.245C233.388 308.335 228.278 310.215 223.997 310.814C221.865 311.113 219.916 311.096 218.273 310.864C216.708 310.643 216.095 309.648 214.951 308.857C213.59 307.917 212.653 304.491 213.321 302.785C213.989 301.079 215.964 303.548 217.324 304.488C217.339 304.497 217.468 304.573 217.762 304.67C218.068 304.771 218.486 304.873 219.014 304.948C220.069 305.097 221.463 305.125 223.095 304.896C226.342 304.442 230.448 302.985 234.592 299.589C239.113 295.885 241.532 293.076 242.447 290.414C243.276 288.003 243.033 285.176 240.66 280.881C239.809 279.341 238.81 278.388 237.768 277.832C236.726 277.276 235.454 277.016 233.901 277.164C230.7 277.468 226.495 279.502 221.792 283.734C219.308 285.97 217.112 287.829 215.12 289.239C213.143 290.638 211.204 291.714 209.232 292.222C207.166 292.754 205.148 292.641 203.163 291.806C201.271 291.01 199.586 289.632 197.983 287.948C194.431 284.216 192.952 279.659 193.905 274.761C196.092 267.347 197.923 265.37 202.708 260.924Z" fill="#ED5F00"/>
<rect width="5.41088" height="68.1929" rx="2.70544" transform="matrix(0.764973 -0.643378 0.640914 0.768169 196.399 254.508)" fill="white"/>
<path fill-rule="evenodd" clip-rule="evenodd" d="M203.101 257.969C211.398 250.261 222.007 251.098 226.432 252.514C228.001 253.016 228.886 254.697 228.411 256.268C227.935 257.84 226.278 258.707 224.71 258.205C221.572 257.201 213.417 256.575 207.161 262.387C202.852 266.39 200.71 270.024 200.123 273.037C199.572 275.871 200.327 278.471 202.632 280.892C203.958 282.285 204.967 283.003 205.775 283.343C206.492 283.644 207.182 283.707 208.074 283.477C209.06 283.223 210.33 282.598 212.052 281.379C213.759 280.17 215.753 278.494 218.194 276.298C223.34 271.667 228.679 268.732 233.65 268.26C236.184 268.019 238.655 268.419 240.881 269.607C243.107 270.796 244.899 272.672 246.23 275.082C249.083 280.246 250.026 284.906 248.452 289.487C246.963 293.818 243.388 297.508 238.773 301.29C233.781 305.38 228.672 307.26 224.39 307.859C222.258 308.157 220.309 308.141 218.666 307.908C217.102 307.687 215.551 307.233 214.407 306.442C213.047 305.502 212.685 303.64 213.599 302.285C214.513 300.929 216.357 300.592 217.717 301.533C217.716 301.532 217.717 301.532 217.718 301.533C217.733 301.542 217.862 301.618 218.155 301.715C218.461 301.816 218.879 301.917 219.407 301.992C220.463 302.142 221.856 302.169 223.488 301.941C226.735 301.487 230.841 300.029 234.985 296.634C239.506 292.93 241.925 290.12 242.84 287.459C243.669 285.047 243.426 282.221 241.053 277.926C240.202 276.385 239.203 275.433 238.161 274.877C237.119 274.32 235.847 274.061 234.294 274.208C231.093 274.513 226.888 276.546 222.186 280.778C219.701 283.014 217.505 284.874 215.513 286.283C213.536 287.683 211.597 288.758 209.625 289.266C207.559 289.799 205.541 289.685 203.556 288.85C201.664 288.054 199.979 286.676 198.376 284.992C194.824 281.261 193.345 276.703 194.298 271.805C195.216 267.087 198.316 262.415 203.101 257.969Z" fill="white"/>
</g>
<g filter="url(#filter5_f_11_283)">
<path d="M134.978 152.539C144.395 200.791 106.469 248.69 58.965 257.849C11.4604 267.007 -34.684 235.315 -44.1015 187.063C-53.519 138.811 -27.6036 99.1716 13.4469 80.8544C54.4974 62.5372 125.56 104.286 134.978 152.539Z" fill="#ED5F00"/>
<ellipse cx="87.5984" cy="89.0166" rx="87.5984" ry="89.0166" transform="matrix(0.981919 -0.189303 0.191559 0.981481 -54.0916 90.9014)" fill="url(#paint12_linear_11_283)"/>
<ellipse cx="64.6218" cy="65.668" rx="64.6218" ry="65.668" transform="matrix(0.981919 -0.189303 0.191559 0.981481 -27.0574 109.468)" fill="#ED5F00"/>
<ellipse cx="62.4677" cy="63.479" rx="62.4677" ry="63.479" transform="matrix(0.981919 -0.189303 0.191559 0.981481 -26.2188 113.765)" fill="black"/>
<path d="M30.193 131.616C29.4535 129.784 29.7846 127.691 31.0533 126.175L31.3521 125.818C31.7487 125.344 32.2608 124.981 32.8384 124.765C34.6309 124.094 36.6286 124.961 37.3638 126.731L66.3454 196.48C67.1812 198.491 66.5028 200.818 64.7171 202.066C62.2874 203.763 58.921 202.763 57.8114 200.015L30.193 131.616Z" fill="#ED5F00"/>
<path fill-rule="evenodd" clip-rule="evenodd" d="M35.4192 134.973C47.8929 129.151 62.2511 132.962 66.8419 136.252C68.4691 137.418 66.4704 140.808 65.3339 142.449C64.1974 144.089 61.957 144.474 60.3298 143.308C57.0739 140.976 47.8727 137.21 38.4679 141.599C31.9888 144.623 28.1548 148.027 26.3523 151.295C24.6574 154.367 24.5608 157.657 26.324 161.318C27.3378 163.424 28.2373 164.631 29.0458 165.326C29.7626 165.942 30.5376 166.272 31.6554 166.339C32.8912 166.413 34.5928 166.163 37.0396 165.395C39.4658 164.634 42.3981 163.439 46.0407 161.809C53.7224 158.371 60.9935 156.968 66.9211 158.276C69.9424 158.943 72.6522 160.328 74.7835 162.533C76.9153 164.738 80.1875 167.211 80.8285 170.495C82.2024 177.534 79.6566 183.643 76.1256 188.356C72.7872 192.811 67.2746 195.746 60.5245 198.399C53.224 201.269 46.6115 201.537 41.435 200.633C38.8564 200.183 36.6086 199.437 34.7942 198.555C33.0668 197.715 32.728 196.335 31.6996 194.994C30.4766 193.398 30.6702 189.085 32.0796 187.361C33.4891 185.637 34.852 189.229 36.0751 190.825C36.0888 190.84 36.2103 190.977 36.5132 191.199C36.8296 191.43 37.2755 191.703 37.8582 191.987C39.0241 192.554 40.6263 193.106 42.5988 193.45C46.5246 194.136 51.8186 193.982 57.8799 191.6C64.4916 189.001 68.3384 186.653 70.3899 183.916C72.2487 181.435 73.022 178.075 71.8795 172.221C71.4696 170.121 70.669 168.646 69.6713 167.614C68.6732 166.582 67.2982 165.807 65.4472 165.398C61.6303 164.556 56.0069 165.34 48.9876 168.481C45.2796 170.141 42.0445 171.473 39.2144 172.361C36.4048 173.242 33.7609 173.763 31.2901 173.615C28.7013 173.46 26.4085 172.576 24.4242 170.87C22.5315 169.243 21.0965 167.02 19.8703 164.474C17.1535 158.832 17.143 153.007 20.0728 147.696C25.3692 139.935 28.2243 138.331 35.4192 134.973Z" fill="#ED5F00"/>
<rect width="6.57726" height="82.8927" rx="3.28863" transform="matrix(0.925518 -0.377538 0.374213 0.927804 30.5139 125.196)" fill="white"/>
<path fill-rule="evenodd" clip-rule="evenodd" d="M36.9767 131.701C49.4503 125.879 61.4121 130.805 66.0028 134.094C67.6301 135.26 68.0279 137.535 66.8914 139.176C65.7549 140.817 63.5145 141.202 61.8873 140.036C58.6314 137.703 49.4302 133.937 40.0254 138.327C33.5463 141.351 29.7123 144.755 27.9098 148.022C26.2149 151.094 26.1183 154.384 27.8815 158.046C28.8953 160.151 29.7948 161.358 30.6033 162.053C31.3201 162.669 32.0951 162.999 33.2129 163.066C34.4487 163.14 36.1503 162.89 38.5971 162.123C41.0233 161.362 43.9556 160.167 47.5982 158.536C55.2799 155.098 62.5509 153.696 68.4786 155.004C71.4999 155.671 74.2097 157.056 76.341 159.26C78.4728 161.465 79.8463 164.304 80.4873 167.589C81.8611 174.628 81.2141 180.371 77.6831 185.083C74.3447 189.539 68.8321 192.474 62.082 195.127C54.7814 197.996 48.169 198.265 42.9925 197.361C40.4139 196.91 38.1661 196.164 36.3517 195.282C34.6243 194.443 33.0001 193.338 31.9717 191.997C30.7486 190.402 31.0244 188.113 32.5876 186.886C34.1508 185.659 36.4095 185.957 37.6325 187.552C37.6318 187.551 37.6321 187.552 37.6335 187.553C37.6472 187.569 37.7678 187.705 38.0707 187.926C38.3871 188.158 38.833 188.431 39.4157 188.714C40.5816 189.281 42.1838 189.833 44.1563 190.178C48.082 190.863 53.3761 190.71 59.4373 188.327C66.0491 185.729 69.8959 183.381 71.9474 180.643C73.8062 178.163 74.5795 174.802 73.4369 168.948C73.0271 166.848 72.2265 165.373 71.2288 164.342C70.2306 163.309 68.8556 162.534 67.0047 162.126C63.1877 161.283 57.5644 162.067 50.545 165.209C46.8371 166.869 43.602 168.2 40.7719 169.088C37.9623 169.969 35.3184 170.491 32.8476 170.343C30.2588 170.188 27.966 169.303 25.9816 167.597C24.089 165.97 22.654 163.748 21.4278 161.201C18.7109 155.559 18.7005 149.735 21.6303 144.424C24.4526 139.308 29.7818 135.059 36.9767 131.701Z" fill="white"/>
</g>
<defs>
<filter id="filter0_f_11_283" x="230.464" y="489.484" width="182.215" height="183.197" filterUnits="userSpaceOnUse" color-interpolation-filters="sRGB">
<feFlood flood-opacity="0" result="BackgroundImageFix"/>
<feBlend mode="normal" in="SourceGraphic" in2="BackgroundImageFix" result="shape"/>
<feGaussianBlur stdDeviation="30" result="effect1_foregroundBlur_11_283"/>
</filter>
<filter id="filter1_f_11_283" x="318.065" y="521.424" width="68.7307" height="69.2138" filterUnits="userSpaceOnUse" color-interpolation-filters="sRGB">
<feFlood flood-opacity="0" result="BackgroundImageFix"/>
<feBlend mode="normal" in="SourceGraphic" in2="BackgroundImageFix" result="shape"/>
<feGaussianBlur stdDeviation="1" result="effect1_foregroundBlur_11_283"/>
</filter>
<filter id="filter2_f_11_283" x="306.729" y="455.745" width="103.406" height="103.542" filterUnits="userSpaceOnUse" color-interpolation-filters="sRGB">
<feFlood flood-opacity="0" result="BackgroundImageFix"/>
<feBlend mode="normal" in="SourceGraphic" in2="BackgroundImageFix" result="shape"/>
<feGaussianBlur stdDeviation="2" result="effect1_foregroundBlur_11_283"/>
</filter>
<filter id="filter3_f_11_283" x="259.468" y="337.329" width="132.566" height="133.524" filterUnits="userSpaceOnUse" color-interpolation-filters="sRGB">
<feFlood flood-opacity="0" result="BackgroundImageFix"/>
<feBlend mode="normal" in="SourceGraphic" in2="BackgroundImageFix" result="shape"/>
<feGaussianBlur stdDeviation="3" result="effect1_foregroundBlur_11_283"/>
</filter>
<filter id="filter4_f_11_283" x="107.285" y="171.615" width="222.254" height="222.271" filterUnits="userSpaceOnUse" color-interpolation-filters="sRGB">
<feFlood flood-opacity="0" result="BackgroundImageFix"/>
<feBlend mode="normal" in="SourceGraphic" in2="BackgroundImageFix" result="shape"/>
<feGaussianBlur stdDeviation="4" result="effect1_foregroundBlur_11_283"/>
</filter>
<filter id="filter5_f_11_283" x="-72.5515" y="47.7362" width="235.991" height="236.694" filterUnits="userSpaceOnUse" color-interpolation-filters="sRGB">
<feFlood flood-opacity="0" result="BackgroundImageFix"/>
<feBlend mode="normal" in="SourceGraphic" in2="BackgroundImageFix" result="shape"/>
<feGaussianBlur stdDeviation="5" result="effect1_foregroundBlur_11_283"/>
</filter>
<linearGradient id="paint0_linear_11_283" x1="110.399" y1="463.36" x2="95.1994" y2="509.428" gradientUnits="userSpaceOnUse">
<stop stop-color="#F37808"/>
<stop offset="1" stop-color="#FFB619"/>
</linearGradient>
<linearGradient id="paint1_linear_11_283" x1="109.079" y1="608.335" x2="70.326" y2="662.765" gradientUnits="userSpaceOnUse">
<stop stop-color="#F06704"/>
<stop offset="1" stop-color="#FFBD19"/>
</linearGradient>
<linearGradient id="paint2_linear_11_283" x1="187.294" y1="492.897" x2="249.279" y2="701.478" gradientUnits="userSpaceOnUse">
<stop offset="0.12" stop-color="#FFC619"/>
<stop offset="0.2" stop-color="#FFBB19"/>
<stop offset="0.33" stop-color="#FF9F19"/>
<stop offset="0.41" stop-color="#FF8C19"/>
<stop offset="0.83" stop-color="#BE540D"/>
</linearGradient>
<linearGradient id="paint3_linear_11_283" x1="134.139" y1="654.555" x2="222.123" y2="555.671" gradientUnits="userSpaceOnUse">
<stop offset="0.1972" stop-color="white"/>
<stop offset="1" stop-color="white"/>
</linearGradient>
<linearGradient id="paint4_linear_11_283" x1="296.772" y1="546.325" x2="333.875" y2="616.673" gradientUnits="userSpaceOnUse">
<stop stop-color="#F7B91F"/>
<stop offset="1" stop-color="#C96116"/>
<stop offset="1.0001" stop-color="#FF6D03"/>
</linearGradient>
<linearGradient id="paint5_linear_11_283" x1="296.746" y1="641.274" x2="375.895" y2="620.638" gradientUnits="userSpaceOnUse">
<stop stop-color="#D9D9D9"/>
<stop offset="0.534" stop-color="white"/>
<stop offset="0.829" stop-color="white"/>
<stop offset="1" stop-color="#D9D9D9"/>
</linearGradient>
<linearGradient id="paint6_linear_11_283" x1="23.1592" y1="0" x2="23.1592" y2="47.0683" gradientUnits="userSpaceOnUse">
<stop stop-color="#FFC419"/>
<stop offset="1" stop-color="#F36D08"/>
</linearGradient>
<linearGradient id="paint7_linear_11_283" x1="25.7178" y1="0" x2="25.7178" y2="52.2683" gradientUnits="userSpaceOnUse">
<stop stop-color="#FFC419"/>
<stop offset="1" stop-color="#F36D08"/>
</linearGradient>
<linearGradient id="paint8_linear_11_283" x1="35.1624" y1="0" x2="35.1624" y2="71.4634" gradientUnits="userSpaceOnUse">
<stop stop-color="#FFC419"/>
<stop offset="1" stop-color="#F36D08"/>
</linearGradient>
<linearGradient id="paint9_linear_11_283" x1="49.2054" y1="0" x2="49.2054" y2="100.004" gradientUnits="userSpaceOnUse">
<stop stop-color="#FFC419"/>
<stop offset="1" stop-color="#F36D08"/>
</linearGradient>
<linearGradient id="paint10_linear_11_283" x1="148.409" y1="492.385" x2="247.976" y2="367.427" gradientUnits="userSpaceOnUse">
<stop stop-color="#FFB619"/>
<stop offset="1" stop-color="#F06704"/>
</linearGradient>
<linearGradient id="paint11_linear_11_283" x1="72.0642" y1="0" x2="72.0642" y2="146.462" gradientUnits="userSpaceOnUse">
<stop stop-color="#FFC419"/>
<stop offset="1" stop-color="#F36D08"/>
</linearGradient>
<linearGradient id="paint12_linear_11_283" x1="87.5984" y1="0" x2="87.5984" y2="178.033" gradientUnits="userSpaceOnUse">
<stop stop-color="#FFC419"/>
<stop offset="1" stop-color="#F36D08"/>
</linearGradient>
</defs>
</svg>
